<svg xmlns="http://www.w3.org/2000/svg" width="16" height="16" fill="none"><path fill="#001222" d="M7.50006 10.0607L11.0304 6.53033L9.96973 5.46967L7.50006 7.93934L6.03039 6.46967L4.96973 7.53033L7.50006 10.0607Z"></path><path fill="#001222" d="M14.75 2.45941L8 0.209412L1.25 2.45941V9.21998C1.25 11.2056 2.38231 13.0245 4.15459 13.9108L8 15.839L11.8437 13.9117L11.845 13.911C13.6305 13.0235 14.75 11.2029 14.75 9.21998V2.45941ZM2.75 9.21998V3.54055L8 1.79055L13.25 3.54055V9.21998C13.25 10.6365 12.4501 11.9356 11.1763 12.5683L11.1738 12.5695L8 14.161L4.82541 12.5692C3.55795 11.9354 2.75 10.6342 2.75 9.21998Z"></path></svg>